<?xml version="1.0" standalone="no"?>
<!DOCTYPE svg PUBLIC "-//W3C//DTD SVG 20010904//EN"
 "http://www.w3.org/TR/2001/REC-SVG-20010904/DTD/svg10.dtd">
<svg version="1.0" xmlns="http://www.w3.org/2000/svg"
 width="700.000000pt" height="700.000000pt" viewBox="0 0 700.000000 700.000000"
 preserveAspectRatio="xMidYMid meet">
<metadata>
Created by potrace 1.14, written by Peter Selinger 2001-2017
</metadata>
<g transform="translate(0.000000,700.000000) scale(0.100000,-0.100000)"
fill="#000000" stroke="none">
<path d="M323 6984 c-110 -30 -227 -124 -273 -220 -53 -108 -50 84 -50 -3259
0 -3340 -2 -3159 50 -3270 30 -61 120 -152 180 -182 116 -57 -121 -53 3261
-53 2235 0 3123 3 3161 11 135 28 249 119 306 244 43 94 42 -34 42 3237 0
2284 -3 3121 -11 3160 -27 122 -120 248 -222 297 -111 54 91 51 -3272 50
-2665 -1 -3128 -3 -3172 -15z"/>
</g>
</svg>
