<?xml version="1.0" standalone="no"?>
<!DOCTYPE svg PUBLIC "-//W3C//DTD SVG 20010904//EN"
 "http://www.w3.org/TR/2001/REC-SVG-20010904/DTD/svg10.dtd">
<svg version="1.0" xmlns="http://www.w3.org/2000/svg"
 width="512.000000pt" height="512.000000pt" viewBox="0 0 512.000000 512.000000"
 preserveAspectRatio="xMidYMid meet">
<metadata>
Created by potrace 1.14, written by Peter Selinger 2001-2017
</metadata>
<g transform="translate(0.000000,512.000000) scale(0.100000,-0.100000)"
fill="#000000" stroke="none">
<path d="M1305 5108 c-16 -6 -43 -20 -60 -32 -50 -35 -1182 -1172 -1212 -1217
l-28 -43 0 -1825 0 -1826 29 -45 c29 -44 58 -71 106 -100 22 -13 246 -15 1850
-15 1732 0 1827 1 1858 18 51 28 1219 1200 1245 1250 l22 42 0 1815 c0 2033 7
1847 -72 1924 -73 71 58 66 -1922 65 -1235 0 -1795 -4 -1816 -11z m2660 -511
c249 -55 427 -183 513 -367 48 -103 65 -182 68 -316 6 -254 -67 -425 -240
-560 l-38 -30 68 -40 c144 -83 247 -218 295 -389 19 -68 23 -103 22 -235 0
-147 -2 -160 -31 -244 -17 -48 -50 -117 -73 -153 -44 -67 -155 -177 -205 -203
-16 -8 -31 -17 -34 -20 -39 -39 -257 -110 -395 -128 -27 -4 -357 -7 -732 -7
-676 0 -682 0 -710 21 -55 41 -54 -6 -51 1353 3 1197 4 1258 21 1285 38 57 20
56 767 52 575 -2 696 -5 755 -19z"/>
<path d="M3187 3998 c-8 -5 -12 -69 -12 -208 0 -170 2 -201 15 -204 8 -2 112
-3 230 -2 202 1 218 3 262 24 62 30 89 75 95 155 10 120 -37 202 -128 227 -48
14 -443 20 -462 8z"/>
<path d="M3177 2962 c-2 -6 -1 -381 2 -425 1 -17 17 -18 269 -15 264 3 268 3
317 28 67 35 98 94 98 188 1 84 -15 130 -56 170 -52 51 -108 59 -384 60 -134
0 -244 -2 -246 -6z"/>
</g>
</svg>
